<mxfile host="app.diagrams.net" modified="2024-06-10T20:07:17.886Z" agent="Mozilla/5.0 (Windows NT 10.0; Win64; x64) AppleWebKit/537.36 (KHTML, like Gecko) Chrome/125.0.0.0 Safari/537.36" etag="yjAYpBVk2oURD5n_rUBa" version="24.5.2" type="device">
  <diagram name="Page-1" id="isXZhm8HFzHV02_bONOq">
    <mxGraphModel dx="2049" dy="1054" grid="1" gridSize="10" guides="1" tooltips="1" connect="1" arrows="1" fold="1" page="1" pageScale="1" pageWidth="827" pageHeight="1169" background="none" math="0" shadow="0">
      <root>
        <mxCell id="0" />
        <mxCell id="1" parent="0" />
        <mxCell id="JEI96LDopRJbLZhXfAIj-1" value="PRODUCTION" style="whiteSpace=wrap;strokeWidth=2;verticalAlign=top;" vertex="1" parent="1">
          <mxGeometry x="1209" y="917" width="1244" height="84" as="geometry" />
        </mxCell>
        <mxCell id="JEI96LDopRJbLZhXfAIj-2" value="SDI" style="whiteSpace=wrap;strokeWidth=2;" vertex="1" parent="1">
          <mxGeometry x="1817" y="942" width="37" height="34" as="geometry" />
        </mxCell>
        <mxCell id="JEI96LDopRJbLZhXfAIj-3" value="INSTALLING Geoserver" style="whiteSpace=wrap;strokeWidth=2;verticalAlign=top;" vertex="1" parent="1">
          <mxGeometry x="2342" y="154" width="150" height="30" as="geometry" />
        </mxCell>
        <mxCell id="JEI96LDopRJbLZhXfAIj-4" value="Download the war file of Geoserver 2.22.5" style="whiteSpace=wrap;strokeWidth=2;" vertex="1" parent="1">
          <mxGeometry x="2256" y="288" width="320" height="34" as="geometry" />
        </mxCell>
        <mxCell id="JEI96LDopRJbLZhXfAIj-5" value="Download the zipped binary of Tomcat 9.0.89" style="whiteSpace=wrap;strokeWidth=2;" vertex="1" parent="1">
          <mxGeometry x="2245" y="204" width="341" height="34" as="geometry" />
        </mxCell>
        <mxCell id="JEI96LDopRJbLZhXfAIj-6" value="Unzip the downloaded Tomcat to some location on drive" style="whiteSpace=wrap;strokeWidth=2;" vertex="1" parent="1">
          <mxGeometry x="2206" y="372" width="419" height="34" as="geometry" />
        </mxCell>
        <mxCell id="JEI96LDopRJbLZhXfAIj-7" value="Add the downloaded *.war files to webapps folder of Apache Tomcat" style="whiteSpace=wrap;strokeWidth=2;" vertex="1" parent="1">
          <mxGeometry x="2162" y="481" width="509" height="34" as="geometry" />
        </mxCell>
        <mxCell id="JEI96LDopRJbLZhXfAIj-8" value="Run the Tomcat server" style="whiteSpace=wrap;strokeWidth=2;" vertex="1" parent="1">
          <mxGeometry x="2328" y="565" width="176" height="34" as="geometry" />
        </mxCell>
        <mxCell id="JEI96LDopRJbLZhXfAIj-9" value="Open Geoserver" style="whiteSpace=wrap;strokeWidth=2;" vertex="1" parent="1">
          <mxGeometry x="2351" y="649" width="130" height="34" as="geometry" />
        </mxCell>
        <mxCell id="JEI96LDopRJbLZhXfAIj-10" value="Geoserver running" style="whiteSpace=wrap;strokeWidth=2;" vertex="1" parent="1">
          <mxGeometry x="2343" y="808" width="146" height="34" as="geometry" />
        </mxCell>
        <mxCell id="JEI96LDopRJbLZhXfAIj-11" value="INSTALLING Geonetwork" style="whiteSpace=wrap;strokeWidth=2;verticalAlign=top;" vertex="1" parent="1">
          <mxGeometry x="20" y="20" width="2087" height="713" as="geometry" />
        </mxCell>
        <mxCell id="JEI96LDopRJbLZhXfAIj-31" value="FINAL STATE" style="whiteSpace=wrap;strokeWidth=2;verticalAlign=top;" vertex="1" parent="1">
          <mxGeometry x="481" y="783" width="1336" height="84" as="geometry" />
        </mxCell>
        <mxCell id="JEI96LDopRJbLZhXfAIj-32" value="Geonetwork running" style="whiteSpace=wrap;strokeWidth=2;" vertex="1" parent="1">
          <mxGeometry x="1175" y="808" width="160" height="34" as="geometry" />
        </mxCell>
        <mxCell id="JEI96LDopRJbLZhXfAIj-35" value="" style="startArrow=none;endArrow=block;exitX=0.4983897900763359;exitY=1;entryX=0.000830078125;entryY=0.36508836395669547;rounded=0;edgeStyle=orthogonalEdgeStyle;" edge="1" parent="1" source="JEI96LDopRJbLZhXfAIj-30" target="JEI96LDopRJbLZhXfAIj-32">
          <mxGeometry relative="1" as="geometry" />
        </mxCell>
        <mxCell id="JEI96LDopRJbLZhXfAIj-41" value="" style="startArrow=none;endArrow=block;exitX=0.4994857594936709;exitY=1;entryX=0.50185546875;entryY=0;rounded=0;edgeStyle=orthogonalEdgeStyle;" edge="1" parent="1" source="JEI96LDopRJbLZhXfAIj-27" target="JEI96LDopRJbLZhXfAIj-32">
          <mxGeometry relative="1" as="geometry" />
        </mxCell>
        <mxCell id="JEI96LDopRJbLZhXfAIj-48" value="" style="startArrow=none;endArrow=block;exitX=0.5018199573863636;exitY=1;entryX=1.002880859375;entryY=0.31730274375277145;rounded=0;edgeStyle=orthogonalEdgeStyle;" edge="1" parent="1" source="JEI96LDopRJbLZhXfAIj-21" target="JEI96LDopRJbLZhXfAIj-32">
          <mxGeometry relative="1" as="geometry" />
        </mxCell>
        <mxCell id="JEI96LDopRJbLZhXfAIj-49" value="" style="startArrow=none;endArrow=block;exitX=0.5012600806451613;exitY=1;entryX=0.4997802734375;entryY=0;rounded=0;edgeStyle=orthogonalEdgeStyle;" edge="1" parent="1" source="JEI96LDopRJbLZhXfAIj-5" target="JEI96LDopRJbLZhXfAIj-4">
          <mxGeometry relative="1" as="geometry" />
        </mxCell>
        <mxCell id="JEI96LDopRJbLZhXfAIj-50" value="" style="startArrow=none;endArrow=block;exitX=0.4997802734375;exitY=1;entryX=0.5010255071599046;entryY=0;rounded=0;edgeStyle=orthogonalEdgeStyle;" edge="1" parent="1" source="JEI96LDopRJbLZhXfAIj-4" target="JEI96LDopRJbLZhXfAIj-6">
          <mxGeometry relative="1" as="geometry" />
        </mxCell>
        <mxCell id="JEI96LDopRJbLZhXfAIj-51" value="" style="startArrow=none;endArrow=block;exitX=0.5010255071599046;exitY=1;entryX=0.49887954322200395;entryY=0;rounded=0;edgeStyle=orthogonalEdgeStyle;" edge="1" parent="1" source="JEI96LDopRJbLZhXfAIj-6" target="JEI96LDopRJbLZhXfAIj-7">
          <mxGeometry relative="1" as="geometry" />
        </mxCell>
        <mxCell id="JEI96LDopRJbLZhXfAIj-52" value="" style="startArrow=none;endArrow=block;exitX=0.49887954322200395;exitY=1;entryX=0.4996004971590909;entryY=0;rounded=0;edgeStyle=orthogonalEdgeStyle;" edge="1" parent="1" source="JEI96LDopRJbLZhXfAIj-7" target="JEI96LDopRJbLZhXfAIj-8">
          <mxGeometry relative="1" as="geometry" />
        </mxCell>
        <mxCell id="JEI96LDopRJbLZhXfAIj-53" value="" style="startArrow=none;endArrow=block;exitX=0.4996004971590909;exitY=1;entryX=0.4994591346153846;entryY=0;rounded=0;edgeStyle=orthogonalEdgeStyle;" edge="1" parent="1" source="JEI96LDopRJbLZhXfAIj-8" target="JEI96LDopRJbLZhXfAIj-9">
          <mxGeometry relative="1" as="geometry" />
        </mxCell>
        <mxCell id="JEI96LDopRJbLZhXfAIj-54" value="" style="startArrow=none;endArrow=block;exitX=0.4994591346153846;exitY=1;entryX=0.4995184075342466;entryY=0;rounded=0;edgeStyle=orthogonalEdgeStyle;" edge="1" parent="1" source="JEI96LDopRJbLZhXfAIj-9" target="JEI96LDopRJbLZhXfAIj-10">
          <mxGeometry relative="1" as="geometry" />
        </mxCell>
        <mxCell id="JEI96LDopRJbLZhXfAIj-55" value="" style="startArrow=none;endArrow=block;exitX=0.50185546875;exitY=1;entryX=0.0034839527027027027;entryY=0.4606531205046702;rounded=0;edgeStyle=orthogonalEdgeStyle;" edge="1" parent="1" source="JEI96LDopRJbLZhXfAIj-32" target="JEI96LDopRJbLZhXfAIj-2">
          <mxGeometry relative="1" as="geometry" />
        </mxCell>
        <mxCell id="JEI96LDopRJbLZhXfAIj-56" value="" style="startArrow=none;endArrow=block;exitX=0.4995184075342466;exitY=1;entryX=1.0026393581081081;entryY=0.4606531205046702;rounded=0;edgeStyle=orthogonalEdgeStyle;" edge="1" parent="1" source="JEI96LDopRJbLZhXfAIj-10" target="JEI96LDopRJbLZhXfAIj-2">
          <mxGeometry relative="1" as="geometry" />
        </mxCell>
        <mxCell id="JEI96LDopRJbLZhXfAIj-57" value="" style="group" vertex="1" connectable="0" parent="1">
          <mxGeometry x="50" y="400" width="230" height="280" as="geometry" />
        </mxCell>
        <mxCell id="JEI96LDopRJbLZhXfAIj-12" value="USING DOCKER" style="whiteSpace=wrap;strokeWidth=2;verticalAlign=top;" vertex="1" parent="JEI96LDopRJbLZhXfAIj-57">
          <mxGeometry width="230" height="280" as="geometry" />
        </mxCell>
        <mxCell id="JEI96LDopRJbLZhXfAIj-28" value="Run docker compose command in the folder of the cloned repository" style="whiteSpace=wrap;strokeWidth=2;" vertex="1" parent="JEI96LDopRJbLZhXfAIj-57">
          <mxGeometry x="45" y="130" width="153" height="65" as="geometry" />
        </mxCell>
        <mxCell id="JEI96LDopRJbLZhXfAIj-29" value="Download docker images of Geonetwork and other components from https://github.com/geonetwork/docker-geonetwork" style="whiteSpace=wrap;strokeWidth=2;" vertex="1" parent="JEI96LDopRJbLZhXfAIj-57">
          <mxGeometry x="10" y="30" width="210" height="90" as="geometry" />
        </mxCell>
        <mxCell id="JEI96LDopRJbLZhXfAIj-30" value="Docker installed" style="whiteSpace=wrap;strokeWidth=2;" vertex="1" parent="JEI96LDopRJbLZhXfAIj-57">
          <mxGeometry x="84.5" y="230" width="74" height="34" as="geometry" />
        </mxCell>
        <mxCell id="JEI96LDopRJbLZhXfAIj-33" value="" style="startArrow=none;endArrow=block;exitX=0.499763787793953;exitY=1;entryX=0.4995855844793713;entryY=0;rounded=0;edgeStyle=orthogonalEdgeStyle;" edge="1" parent="JEI96LDopRJbLZhXfAIj-57" source="JEI96LDopRJbLZhXfAIj-29" target="JEI96LDopRJbLZhXfAIj-28">
          <mxGeometry relative="1" as="geometry" />
        </mxCell>
        <mxCell id="JEI96LDopRJbLZhXfAIj-34" value="" style="startArrow=none;endArrow=block;exitX=0.4995855844793713;exitY=1;entryX=0.4983897900763359;entryY=0;rounded=0;edgeStyle=orthogonalEdgeStyle;" edge="1" parent="JEI96LDopRJbLZhXfAIj-57" source="JEI96LDopRJbLZhXfAIj-28" target="JEI96LDopRJbLZhXfAIj-30">
          <mxGeometry relative="1" as="geometry" />
        </mxCell>
        <mxCell id="JEI96LDopRJbLZhXfAIj-60" value="" style="group" vertex="1" connectable="0" parent="1">
          <mxGeometry x="300" y="180" width="170" height="470" as="geometry" />
        </mxCell>
        <mxCell id="JEI96LDopRJbLZhXfAIj-13" value="BUILDING FROM SOURCE" style="whiteSpace=wrap;strokeWidth=2;verticalAlign=top;" vertex="1" parent="JEI96LDopRJbLZhXfAIj-60">
          <mxGeometry width="170" height="470" as="geometry" />
        </mxCell>
        <mxCell id="JEI96LDopRJbLZhXfAIj-22" value="Install Ubuntu on wsl" style="whiteSpace=wrap;strokeWidth=2;" vertex="1" parent="JEI96LDopRJbLZhXfAIj-60">
          <mxGeometry x="41.5" y="94" width="88" height="34" as="geometry" />
        </mxCell>
        <mxCell id="JEI96LDopRJbLZhXfAIj-23" value="Install wsl" style="whiteSpace=wrap;strokeWidth=2;" vertex="1" parent="JEI96LDopRJbLZhXfAIj-60">
          <mxGeometry x="42" y="33" width="87" height="34" as="geometry" />
        </mxCell>
        <mxCell id="JEI96LDopRJbLZhXfAIj-24" value="Clone the Geonetwork github repository" style="whiteSpace=wrap;strokeWidth=2;" vertex="1" parent="JEI96LDopRJbLZhXfAIj-60">
          <mxGeometry x="22.5" y="156" width="127" height="38" as="geometry" />
        </mxCell>
        <mxCell id="JEI96LDopRJbLZhXfAIj-25" value="Build Geonetwork using maven" style="whiteSpace=wrap;strokeWidth=2;" vertex="1" parent="JEI96LDopRJbLZhXfAIj-60">
          <mxGeometry x="39.5" y="220" width="93" height="49" as="geometry" />
        </mxCell>
        <mxCell id="JEI96LDopRJbLZhXfAIj-26" value="Install Elasticsearch 7.17.15" style="whiteSpace=wrap;strokeWidth=2;" vertex="1" parent="JEI96LDopRJbLZhXfAIj-60">
          <mxGeometry x="34" y="306" width="103" height="49" as="geometry" />
        </mxCell>
        <mxCell id="JEI96LDopRJbLZhXfAIj-27" value="Run geonetwork and elastic search using jetty server" style="whiteSpace=wrap;strokeWidth=2;" vertex="1" parent="JEI96LDopRJbLZhXfAIj-60">
          <mxGeometry x="40.5" y="387" width="92" height="63" as="geometry" />
        </mxCell>
        <mxCell id="JEI96LDopRJbLZhXfAIj-36" value="" style="startArrow=none;endArrow=block;exitX=0.49766522988505746;exitY=1;entryX=0.5017884036144579;entryY=0;rounded=0;edgeStyle=orthogonalEdgeStyle;" edge="1" parent="JEI96LDopRJbLZhXfAIj-60" source="JEI96LDopRJbLZhXfAIj-23" target="JEI96LDopRJbLZhXfAIj-22">
          <mxGeometry relative="1" as="geometry" />
        </mxCell>
        <mxCell id="JEI96LDopRJbLZhXfAIj-37" value="" style="startArrow=none;endArrow=block;exitX=0.5017884036144579;exitY=1;entryX=0.5009765625;entryY=0;rounded=0;edgeStyle=orthogonalEdgeStyle;" edge="1" parent="JEI96LDopRJbLZhXfAIj-60" source="JEI96LDopRJbLZhXfAIj-22" target="JEI96LDopRJbLZhXfAIj-24">
          <mxGeometry relative="1" as="geometry" />
        </mxCell>
        <mxCell id="JEI96LDopRJbLZhXfAIj-38" value="" style="startArrow=none;endArrow=block;exitX=0.5009765625;exitY=1;entryX=0.5012579449152542;entryY=0;rounded=0;edgeStyle=orthogonalEdgeStyle;" edge="1" parent="JEI96LDopRJbLZhXfAIj-60" source="JEI96LDopRJbLZhXfAIj-24" target="JEI96LDopRJbLZhXfAIj-25">
          <mxGeometry relative="1" as="geometry" />
        </mxCell>
        <mxCell id="JEI96LDopRJbLZhXfAIj-39" value="" style="startArrow=none;endArrow=block;exitX=0.5012579449152542;exitY=1;entryX=0.5013744212962963;entryY=0;rounded=0;edgeStyle=orthogonalEdgeStyle;" edge="1" parent="JEI96LDopRJbLZhXfAIj-60" source="JEI96LDopRJbLZhXfAIj-25" target="JEI96LDopRJbLZhXfAIj-26">
          <mxGeometry relative="1" as="geometry" />
        </mxCell>
        <mxCell id="JEI96LDopRJbLZhXfAIj-40" value="" style="startArrow=none;endArrow=block;exitX=0.5013744212962963;exitY=1;entryX=0.4994857594936709;entryY=0;rounded=0;edgeStyle=orthogonalEdgeStyle;" edge="1" parent="JEI96LDopRJbLZhXfAIj-60" source="JEI96LDopRJbLZhXfAIj-26" target="JEI96LDopRJbLZhXfAIj-27">
          <mxGeometry relative="1" as="geometry" />
        </mxCell>
        <mxCell id="JEI96LDopRJbLZhXfAIj-62" value="" style="group" vertex="1" connectable="0" parent="1">
          <mxGeometry x="530" y="40" width="150" height="628" as="geometry" />
        </mxCell>
        <mxCell id="JEI96LDopRJbLZhXfAIj-14" value="USING TOMCAT" style="whiteSpace=wrap;strokeWidth=2;verticalAlign=top;" vertex="1" parent="JEI96LDopRJbLZhXfAIj-62">
          <mxGeometry width="150" height="628" as="geometry" />
        </mxCell>
        <mxCell id="JEI96LDopRJbLZhXfAIj-15" value="Download the war file of Geonetwork 4.2.6" style="whiteSpace=wrap;strokeWidth=2;" vertex="1" parent="JEI96LDopRJbLZhXfAIj-62">
          <mxGeometry x="23.5" y="124" width="100" height="66" as="geometry" />
        </mxCell>
        <mxCell id="JEI96LDopRJbLZhXfAIj-16" value="Download the zipped binary of Tomcat 9.0.89" style="whiteSpace=wrap;strokeWidth=2;" vertex="1" parent="JEI96LDopRJbLZhXfAIj-62">
          <mxGeometry x="27" y="30" width="93" height="60" as="geometry" />
        </mxCell>
        <mxCell id="JEI96LDopRJbLZhXfAIj-17" value="Download the Elastic search 7.17.15 zip file" style="whiteSpace=wrap;strokeWidth=2;" vertex="1" parent="JEI96LDopRJbLZhXfAIj-62">
          <mxGeometry x="32" y="208" width="88" height="52" as="geometry" />
        </mxCell>
        <mxCell id="JEI96LDopRJbLZhXfAIj-18" value="Unzip the downloaded Tomcat to some location on drive" style="whiteSpace=wrap;strokeWidth=2;" vertex="1" parent="JEI96LDopRJbLZhXfAIj-62">
          <mxGeometry x="35" y="292" width="82" height="68" as="geometry" />
        </mxCell>
        <mxCell id="JEI96LDopRJbLZhXfAIj-19" value="Add the downloaded *.war files to webapps folder of Apache Tomcat" style="whiteSpace=wrap;strokeWidth=2;" vertex="1" parent="JEI96LDopRJbLZhXfAIj-62">
          <mxGeometry x="17.5" y="401" width="117" height="59" as="geometry" />
        </mxCell>
        <mxCell id="JEI96LDopRJbLZhXfAIj-20" value="Unzip Elasticsearch and run it" style="whiteSpace=wrap;strokeWidth=2;" vertex="1" parent="JEI96LDopRJbLZhXfAIj-62">
          <mxGeometry x="37.5" y="485" width="77" height="55" as="geometry" />
        </mxCell>
        <mxCell id="JEI96LDopRJbLZhXfAIj-21" value="Run the Tomcat server" style="whiteSpace=wrap;strokeWidth=2;" vertex="1" parent="JEI96LDopRJbLZhXfAIj-62">
          <mxGeometry x="45.5" y="569" width="61" height="51" as="geometry" />
        </mxCell>
        <mxCell id="JEI96LDopRJbLZhXfAIj-42" value="" style="startArrow=none;endArrow=block;exitX=0.4994730571847507;exitY=1;entryX=0.499450496941896;entryY=0;rounded=0;edgeStyle=orthogonalEdgeStyle;" edge="1" parent="JEI96LDopRJbLZhXfAIj-62" source="JEI96LDopRJbLZhXfAIj-16" target="JEI96LDopRJbLZhXfAIj-15">
          <mxGeometry relative="1" as="geometry" />
        </mxCell>
        <mxCell id="JEI96LDopRJbLZhXfAIj-43" value="" style="startArrow=none;endArrow=block;exitX=0.499450496941896;exitY=1;entryX=0.500970643939394;entryY=0;rounded=0;edgeStyle=orthogonalEdgeStyle;" edge="1" parent="JEI96LDopRJbLZhXfAIj-62" source="JEI96LDopRJbLZhXfAIj-15" target="JEI96LDopRJbLZhXfAIj-17">
          <mxGeometry relative="1" as="geometry" />
        </mxCell>
        <mxCell id="JEI96LDopRJbLZhXfAIj-44" value="" style="startArrow=none;endArrow=block;exitX=0.500970643939394;exitY=1;entryX=0.49957115155131265;entryY=0;rounded=0;edgeStyle=orthogonalEdgeStyle;" edge="1" parent="JEI96LDopRJbLZhXfAIj-62" source="JEI96LDopRJbLZhXfAIj-17" target="JEI96LDopRJbLZhXfAIj-18">
          <mxGeometry relative="1" as="geometry" />
        </mxCell>
        <mxCell id="JEI96LDopRJbLZhXfAIj-45" value="" style="startArrow=none;endArrow=block;exitX=0.49957115155131265;exitY=1;entryX=0.4996469793713163;entryY=0;rounded=0;edgeStyle=orthogonalEdgeStyle;" edge="1" parent="JEI96LDopRJbLZhXfAIj-62" source="JEI96LDopRJbLZhXfAIj-18" target="JEI96LDopRJbLZhXfAIj-19">
          <mxGeometry relative="1" as="geometry" />
        </mxCell>
        <mxCell id="JEI96LDopRJbLZhXfAIj-46" value="" style="startArrow=none;endArrow=block;exitX=0.4996469793713163;exitY=1;entryX=0.4992153384279476;entryY=0;rounded=0;edgeStyle=orthogonalEdgeStyle;" edge="1" parent="JEI96LDopRJbLZhXfAIj-62" source="JEI96LDopRJbLZhXfAIj-19" target="JEI96LDopRJbLZhXfAIj-20">
          <mxGeometry relative="1" as="geometry" />
        </mxCell>
        <mxCell id="JEI96LDopRJbLZhXfAIj-47" value="" style="startArrow=none;endArrow=block;exitX=0.4992153384279476;exitY=1;entryX=0.5018199573863636;entryY=0;rounded=0;edgeStyle=orthogonalEdgeStyle;" edge="1" parent="JEI96LDopRJbLZhXfAIj-62" source="JEI96LDopRJbLZhXfAIj-20" target="JEI96LDopRJbLZhXfAIj-21">
          <mxGeometry relative="1" as="geometry" />
        </mxCell>
      </root>
    </mxGraphModel>
  </diagram>
</mxfile>
